<?xml version="1.0" encoding="UTF-8" standalone="no"?>
<!DOCTYPE svg PUBLIC "-//W3C//DTD SVG 1.1//EN" "http://www.w3.org/Graphics/SVG/1.1/DTD/svg11.dtd">
<svg xmlns="http://www.w3.org/2000/svg" version="1.1" viewBox="0 0 591 591" width="591.0pt" height="591.0pt">
<path d="M 0.00 0.00 L 591.00 0.00 L 591.00 591.00 L 0.00 591.00 L 0.00 0.00 Z" fill="#ffffff" />
<path d="M 271.01 32.26 C 284.62 31.34 298.36 31.60 312.00 31.87 C 330.94 32.75 349.68 36.27 367.97 41.17 C 383.59 46.03 399.24 51.70 413.83 59.15 C 434.34 69.23 453.38 82.42 470.46 97.57 C 486.78 111.57 501.01 128.14 513.21 145.81 C 536.38 179.46 551.63 218.46 557.17 258.96 C 559.89 276.56 559.39 295.16 559.04 313.00 C 555.67 368.77 533.68 422.96 497.62 465.59 C 468.81 500.40 430.17 527.09 388.00 543.09 C 371.19 549.03 354.25 553.98 336.55 556.46 C 316.70 559.75 297.04 559.76 277.00 558.97 C 257.83 557.61 238.60 554.45 220.23 548.73 C 208.79 545.34 197.54 541.43 186.77 536.25 C 177.73 532.18 168.86 527.84 160.46 522.54 C 147.69 514.98 135.52 506.44 124.29 496.72 C 112.68 487.21 102.74 476.35 92.89 465.08 C 57.56 423.03 35.83 369.86 32.03 315.03 C 31.56 302.37 31.59 289.65 32.01 277.00 C 33.29 256.42 37.34 235.90 43.38 216.20 C 56.45 174.64 79.98 136.58 111.15 106.16 C 128.28 89.74 147.11 75.28 168.06 64.07 C 188.55 52.40 210.66 44.32 233.46 38.51 C 245.81 35.40 258.36 33.56 271.01 32.26 Z" fill="#377ddb" />
<path d="M 286.00 38.70 C 300.46 38.60 314.64 38.42 328.98 40.56 C 341.50 41.83 353.88 44.74 365.96 48.20 C 382.76 52.68 399.01 59.61 414.46 67.55 C 429.21 75.25 443.17 84.39 456.12 94.85 C 480.94 114.41 501.90 138.92 517.80 166.21 C 537.05 199.05 548.73 236.25 551.83 274.18 C 553.05 298.01 552.85 321.54 548.00 345.00 C 538.22 396.39 512.05 444.17 474.60 480.61 C 443.98 510.09 406.45 532.09 365.48 543.57 C 349.98 547.63 333.83 551.26 317.82 552.24 C 303.03 553.33 287.96 553.34 273.18 552.28 C 256.53 551.28 239.87 547.53 223.78 543.23 C 194.63 534.88 167.15 521.23 142.74 503.25 C 99.62 471.53 66.43 426.03 50.17 374.96 C 42.17 349.91 37.56 323.33 38.00 297.00 C 37.32 264.27 43.87 231.28 55.83 200.86 C 77.18 146.72 117.47 100.77 167.93 71.90 C 187.29 61.02 208.09 52.58 229.49 46.66 C 247.90 42.24 267.03 38.76 286.00 38.70 Z" fill="#ffffff" />
<path d="M 266.55 112.54 C 269.17 113.85 269.29 116.38 269.32 119.00 C 269.26 132.00 269.35 145.00 269.25 158.00 C 269.31 160.05 269.19 162.38 269.89 164.33 C 271.10 167.00 273.73 168.42 276.12 169.89 C 281.55 173.06 286.74 176.59 291.99 180.03 C 293.73 181.00 295.40 182.30 297.44 181.29 C 302.41 178.99 306.74 175.25 311.47 172.48 C 314.55 170.50 318.51 168.68 320.83 165.81 C 322.04 164.39 321.95 162.79 322.03 161.03 C 321.76 147.36 321.99 133.68 321.83 120.00 C 321.83 116.92 321.98 114.21 324.84 112.41 C 327.92 111.87 331.10 113.86 333.76 115.25 C 346.13 122.34 355.92 133.27 361.99 146.15 C 365.91 153.71 367.32 161.82 368.13 170.21 C 368.69 177.10 367.43 184.26 365.89 190.96 C 363.00 201.56 356.87 211.36 348.90 218.89 C 344.20 223.66 338.53 227.13 333.90 231.90 C 330.26 235.68 328.02 240.68 328.24 245.99 C 328.33 256.67 328.18 267.35 328.32 278.02 C 328.28 280.51 329.15 282.65 330.17 284.87 C 335.23 284.93 338.44 281.37 343.12 280.61 C 346.17 282.26 348.36 285.86 350.39 288.60 C 352.79 292.16 355.70 295.37 358.04 298.96 C 358.93 300.24 358.81 301.76 358.11 303.09 C 355.99 306.32 351.35 307.66 349.33 310.87 C 349.09 314.23 349.90 317.58 349.71 320.98 C 349.62 323.95 348.99 327.13 349.43 330.07 C 351.52 333.51 356.36 335.10 358.54 338.42 C 359.30 341.18 358.13 343.42 356.73 345.69 C 353.86 350.15 350.94 354.61 347.98 359.02 C 346.66 360.84 345.17 363.13 342.86 363.73 C 339.82 363.21 336.93 361.14 334.12 359.91 C 333.02 359.48 331.66 358.61 330.56 359.48 C 327.98 361.21 325.63 363.29 323.11 365.12 C 321.91 366.11 320.09 367.23 319.61 368.77 C 318.12 373.46 317.95 378.65 316.22 383.25 C 315.21 385.65 313.12 384.94 311.00 385.18 C 301.00 385.14 291.00 385.11 281.00 385.20 C 279.18 385.03 276.80 385.48 275.67 383.69 C 273.02 379.06 273.81 372.56 271.26 367.89 C 268.01 364.82 263.76 361.33 259.97 358.98 C 256.18 359.81 252.85 362.65 249.00 363.45 C 246.03 362.99 244.20 359.66 242.65 357.38 C 239.91 352.82 236.77 348.50 234.11 343.89 C 233.10 341.90 231.79 339.58 233.64 337.62 C 236.25 334.79 239.66 332.71 242.52 330.13 C 242.15 326.12 241.61 322.27 241.99 318.22 C 242.16 315.84 242.69 313.27 242.31 310.91 C 240.32 307.66 234.46 305.81 233.31 301.83 C 233.13 298.91 236.03 295.87 237.54 293.52 C 240.83 289.33 243.71 283.93 248.06 280.80 C 250.96 280.20 254.19 283.10 256.90 284.04 C 259.00 284.95 261.76 285.42 262.55 282.62 C 263.67 276.93 262.86 270.79 263.09 265.00 C 262.89 257.19 263.54 249.26 262.75 241.50 C 261.82 234.01 256.05 229.79 250.71 225.30 C 242.42 218.59 235.09 211.34 230.34 201.65 C 221.70 184.93 221.92 165.14 228.85 147.87 C 234.63 134.47 244.79 122.79 257.36 115.37 C 259.95 114.06 263.57 111.75 266.55 112.54 Z" fill="#377ddb" />
<path d="M 167.54 149.71 C 171.84 148.46 176.78 150.28 178.37 154.68 C 179.62 158.22 178.40 161.30 175.80 163.79 C 155.61 182.82 142.00 208.92 136.44 236.00 C 135.42 241.26 135.05 246.66 134.40 251.98 C 133.31 263.20 134.41 273.92 135.78 285.03 C 136.31 289.05 137.35 292.93 138.43 296.82 C 144.36 320.40 157.51 342.16 175.12 358.86 C 178.35 362.03 183.31 364.92 183.37 369.97 C 183.92 375.39 179.18 379.62 173.98 379.48 C 171.04 379.01 168.32 376.78 166.09 374.91 C 159.35 369.00 153.08 362.53 147.46 355.54 C 126.65 328.80 114.95 294.94 115.76 261.00 C 115.65 243.28 119.62 225.33 125.79 208.78 C 133.67 188.30 145.87 168.94 161.88 153.85 C 163.54 152.31 165.43 150.59 167.54 149.71 Z" fill="#377ddb" />
<path d="M 421.00 149.35 C 424.64 149.17 427.31 152.00 429.84 154.20 C 439.23 163.31 447.40 173.65 453.95 185.00 C 470.06 211.73 478.72 243.76 476.56 275.00 C 476.46 282.88 474.62 290.24 473.36 297.97 C 466.73 328.41 450.56 356.50 426.36 376.33 C 424.13 378.00 421.87 379.52 418.96 379.52 C 414.23 378.87 410.32 374.99 410.63 370.03 C 410.56 366.42 412.66 364.36 415.20 362.18 C 428.20 351.36 438.63 337.29 446.20 322.22 C 455.21 303.51 459.35 282.73 458.82 262.00 C 458.71 249.98 456.36 238.44 453.16 226.90 C 446.72 205.78 436.21 186.05 421.26 169.71 C 418.66 166.65 415.33 164.00 413.16 160.64 C 410.45 155.42 415.25 148.74 421.00 149.35 Z" fill="#377ddb" />
<path d="M 192.09 179.04 C 197.67 176.68 203.57 180.99 203.65 186.83 C 203.24 190.27 200.58 192.95 198.47 195.51 C 183.55 213.61 174.73 236.53 173.85 259.99 C 173.47 283.77 181.33 307.28 196.16 325.88 C 198.90 329.39 202.42 332.37 204.88 336.07 C 207.75 341.90 203.48 348.83 196.98 348.68 C 192.76 348.99 190.05 345.28 187.32 342.67 C 167.28 321.96 156.13 293.75 155.79 265.00 C 155.58 237.58 164.66 210.32 181.98 188.99 C 184.88 185.49 188.02 181.20 192.09 179.04 Z" fill="#377ddb" />
<path d="M 401.21 179.79 C 404.78 182.35 407.65 186.18 410.40 189.57 C 422.66 204.52 430.74 223.16 434.58 242.04 C 436.59 254.54 436.92 267.40 435.57 280.00 C 434.96 288.13 432.71 295.74 430.27 303.47 C 424.55 319.93 415.15 335.44 401.77 346.78 C 398.90 349.20 394.84 349.33 391.73 347.28 C 387.53 344.78 386.53 338.46 389.69 334.73 C 393.73 330.05 398.02 325.67 401.48 320.51 C 410.88 306.96 416.08 291.28 418.07 274.99 C 419.03 264.77 418.84 254.56 416.59 244.51 C 413.90 229.12 406.97 214.62 398.23 201.78 C 395.69 198.02 392.53 194.75 389.88 191.09 C 388.17 188.75 388.14 185.77 389.18 183.15 C 391.24 178.77 397.19 177.03 401.21 179.79 Z" fill="#377ddb" />
<path d="M 300.00 260.79 C 302.44 260.88 306.49 260.85 308.18 262.90 C 310.83 268.67 308.68 276.45 310.60 282.49 C 311.69 284.46 314.49 285.50 316.31 286.72 C 324.20 291.09 329.98 298.27 333.56 306.45 C 336.41 313.27 336.81 321.26 335.78 328.51 C 334.12 339.69 326.67 349.29 317.40 355.39 C 315.36 356.80 312.41 357.93 311.02 360.02 C 308.91 364.73 309.33 370.53 307.26 375.28 C 306.36 377.24 304.00 377.84 302.04 378.03 C 297.74 378.39 293.28 378.40 288.98 377.95 C 286.67 377.72 284.69 376.29 283.89 374.09 C 282.12 369.42 282.45 364.01 280.65 359.38 C 278.33 356.75 274.55 355.37 271.76 353.22 C 265.68 348.71 260.26 342.43 257.75 335.19 C 254.49 326.70 254.25 316.88 257.37 308.31 C 260.36 298.48 268.40 290.19 277.16 285.15 C 278.47 284.28 280.30 283.38 281.03 281.95 C 282.34 276.54 281.08 270.55 282.39 265.17 C 282.88 263.49 283.49 261.72 285.42 261.31 C 290.12 260.33 295.21 260.93 300.00 260.79 Z" fill="#ffffff" />
<path d="M 290.48 301.53 C 300.81 299.06 312.46 304.21 316.12 314.50 C 317.52 320.82 317.46 327.96 313.26 333.28 C 306.32 343.14 291.09 344.80 282.02 336.98 C 275.40 331.63 272.47 322.02 276.07 314.10 C 278.35 307.61 283.98 303.28 290.48 301.53 Z" fill="#377ddb" />
<path d="M 389.00 400.00 C 396.73 401.85 403.32 405.99 408.60 411.90 C 404.90 415.34 401.20 418.78 397.45 422.15 C 396.48 421.24 395.53 420.32 394.53 419.43 C 385.91 411.45 371.02 411.56 362.26 419.25 C 351.91 428.19 351.94 446.80 362.29 455.72 C 368.80 461.50 378.89 462.89 386.97 460.03 C 391.19 458.57 394.38 455.79 397.46 452.67 C 401.19 456.08 404.90 459.51 408.60 462.94 C 404.56 467.42 399.88 471.08 394.21 473.25 C 378.42 479.26 358.98 476.51 347.14 463.87 C 337.05 453.41 334.54 437.68 339.13 424.13 C 342.01 415.93 347.98 408.83 355.47 404.45 C 365.30 398.48 377.95 397.40 389.00 400.00 Z" fill="#344561" />
<path d="M 187.41 399.96 C 192.20 399.94 196.99 399.94 201.78 399.96 C 214.20 415.13 226.60 430.32 239.06 445.46 C 239.09 430.29 239.06 415.12 239.08 399.95 C 244.80 399.96 250.52 399.94 256.24 399.91 C 256.23 424.94 256.24 449.97 256.23 475.00 C 251.48 475.00 246.73 475.00 241.98 475.00 C 229.49 459.84 217.05 444.63 204.55 429.47 C 204.55 444.64 204.55 459.82 204.55 474.99 C 198.84 475.01 193.12 475.01 187.40 474.99 C 187.41 449.98 187.40 424.97 187.41 399.96 Z" fill="#344561" />
<path d="M 273.91 399.95 C 292.81 399.95 311.72 399.94 330.63 399.96 C 330.63 404.60 330.63 409.25 330.63 413.89 C 317.51 413.92 304.39 413.88 291.27 413.91 C 291.27 420.51 291.27 427.11 291.27 433.71 C 302.84 433.72 314.42 433.71 326.00 433.72 C 326.00 438.37 326.00 443.02 325.99 447.66 C 314.41 447.67 302.84 447.64 291.26 447.68 C 291.27 456.78 291.27 465.89 291.26 475.00 C 285.48 475.00 279.69 475.00 273.91 475.00 C 273.90 449.98 273.90 424.97 273.91 399.95 Z" fill="#344561" />
</svg>